<svg viewBox="0 0 106 108" fill="none" xmlns="http://www.w3.org/2000/svg">
  <path
    d="M103.828 35.71H87.958C87.3082 35.7092 86.6852 35.4507 86.2258 34.9913C85.7663 34.5318 85.5078 33.9088 85.507 33.259C85.507 24.6376 82.0822 16.3693 75.9859 10.2731C69.8897 4.17685 61.6214 0.752014 53 0.752014C44.3786 0.752014 36.1103 4.17685 30.0141 10.2731C23.9178 16.3693 20.493 24.6376 20.493 33.259C20.4922 33.9088 20.2337 34.5318 19.7743 34.9913C19.3148 35.4507 18.6918 35.7092 18.042 35.71H2.17201C1.73433 35.7014 1.31053 35.8637 0.990532 36.1624C0.670531 36.4611 0.479512 36.8728 0.458008 37.31C0.458008 46.71 11.581 50.444 16.493 51.632V46.079C16.493 45.5486 16.7037 45.0399 17.0788 44.6648C17.4539 44.2897 17.9626 44.079 18.493 44.079C19.0234 44.079 19.5321 44.2897 19.9072 44.6648C20.2823 45.0399 20.493 45.5486 20.493 46.079V103.11C20.493 104.798 24.193 107.248 29.993 107.248C32.6076 107.318 35.1965 106.716 37.513 105.502C38.7197 104.79 40.095 104.415 41.496 104.415C42.897 104.415 44.2724 104.79 45.479 105.502C47.7958 106.717 50.3851 107.318 53 107.248C55.6146 107.318 58.2035 106.716 60.52 105.502C61.7267 104.79 63.1021 104.415 64.503 104.415C65.9039 104.415 67.2793 104.79 68.486 105.502C70.8007 106.715 73.3874 107.317 76 107.248C81.8 107.248 85.5 104.798 85.5 103.11V46.079C85.5 45.5486 85.7107 45.0399 86.0858 44.6648C86.4609 44.2897 86.9696 44.079 87.5 44.079C88.0304 44.079 88.5391 44.2897 88.9142 44.6648C89.2893 45.0399 89.5 45.5486 89.5 46.079V51.628C94.414 50.428 105.535 46.686 105.535 37.311C105.514 36.8748 105.324 36.464 105.005 36.1652C104.687 35.8665 104.265 35.7033 103.828 35.71ZM35.258 33.023C35.258 32.3411 35.4602 31.6744 35.8391 31.1074C36.218 30.5404 36.7565 30.0984 37.3865 29.8375C38.0166 29.5765 38.7098 29.5082 39.3787 29.6413C40.0475 29.7743 40.6619 30.1027 41.1441 30.5849C41.6263 31.0671 41.9547 31.6815 42.0878 32.3503C42.2208 33.0192 42.1525 33.7125 41.8915 34.3425C41.6306 34.9725 41.1886 35.5111 40.6216 35.8899C40.0546 36.2688 39.388 36.471 38.706 36.471C37.7919 36.47 36.9155 36.1063 36.2691 35.4599C35.6227 34.8136 35.2591 33.9372 35.258 33.023ZM69.479 52.562C69.479 54.7261 69.0528 56.8691 68.2246 58.8684C67.3964 60.8678 66.1825 62.6845 64.6523 64.2148C63.122 65.745 61.3053 66.9589 59.3059 67.7871C57.3066 68.6153 55.1636 69.0415 52.9995 69.0415C50.8354 69.0415 48.6925 68.6153 46.6931 67.7871C44.6937 66.9589 42.877 65.745 41.3467 64.2148C39.8165 62.6845 38.6026 60.8678 37.7744 58.8684C36.9463 56.8691 36.52 54.7261 36.52 52.562V51.152H69.479V52.562ZM67.293 36.472C66.6111 36.472 65.9444 36.2698 65.3774 35.8909C64.8104 35.5121 64.3684 34.9735 64.1075 34.3435C63.8465 33.7135 63.7782 33.0202 63.9113 32.3513C64.0443 31.6825 64.3727 31.0681 64.8549 30.5859C65.3371 30.1037 65.9515 29.7753 66.6203 29.6423C67.2892 29.5092 67.9825 29.5775 68.6125 29.8385C69.2425 30.0994 69.781 30.5414 70.1599 31.1084C70.5388 31.6754 70.741 32.3421 70.741 33.024C70.7399 33.938 70.3765 34.8142 69.7303 35.4606C69.0841 36.107 68.207 36.4707 67.293 36.472Z"
    fill="currentColor" />
</svg>