<svg viewBox="0 0 548 562" fill="none" xmlns="http://www.w3.org/2000/svg">
  <path
    d="M207.765 182.955L246.909 150.591C298.517 98.837 410.114 229.989 415.538 236.549C420.959 243.105 463.071 336.243 391.7 345.241C320.326 354.243 228.978 287.521 202.192 251.216C180.761 222.172 196.98 193.604 207.765 182.955Z"
    fill="#D8F4F1" />
  <path fill-rule="evenodd" clip-rule="evenodd"
    d="M208.488 182.891L247.771 150.412C299.59 98.512 410.836 229.224 416.242 235.763C421.645 242.298 463.478 335.247 392.023 344.479C320.563 353.715 229.368 287.332 202.682 251.135C181.332 222.177 197.659 193.57 208.488 182.891ZM240.618 142.522L201.348 174.99L201.018 175.318C194.393 181.852 186.425 193.409 183.133 207.802C179.746 222.633 181.42 240.258 194.103 257.462C208.58 277.104 239.361 303.648 275.28 324.101C311.08 344.486 354.223 360.099 393.366 355.041C413.879 352.388 427.843 343.369 435.846 329.967C443.516 317.131 444.753 301.848 443.56 288.175C442.349 274.337 438.546 260.875 434.782 250.555C433.159 246.065 431.326 241.655 429.288 237.338C427.813 234.258 426.073 230.941 424.449 228.977C421.571 225.497 391.816 190.478 355.923 162.75C338.059 148.952 317.858 136.306 298.115 130.695C278.184 125.031 257.157 126.252 240.618 142.522Z"
    fill="#2B5F66" />
  <path
    d="M208.257 182.549L247.202 150.349C298.526 98.8292 410.114 229.989 415.538 236.549C420.959 243.105 463.176 336.156 392.042 344.959C394.822 342.66 395.69 331.881 376.874 307.184C353.361 276.309 310.882 284.708 291.384 283.082C271.893 281.456 243.545 268.538 217.312 235.259C196.328 208.636 202.536 189.024 208.265 182.542L208.257 182.549Z"
    fill="#76CEDA" />
  <path
    d="M234.807 208.447C217.702 177.745 237.055 152.25 248.873 143.338C262.235 128.257 321.555 111.595 381.543 163.805C441.523 216.022 452.221 273.537 441.609 302.934C430.993 332.326 419.225 340.772 412.891 322.164C407.826 307.282 400.003 298.238 396.73 295.579C369.426 267.25 310.587 261.772 290.746 254.985C261.864 245.1 251.489 238.387 234.807 208.447Z"
    fill="#FB8915" />
  <path fill-rule="evenodd" clip-rule="evenodd"
    d="M396.588 296.553C399.893 299.235 407.769 308.351 412.892 323.337C419.293 342.072 431.115 333.599 441.734 304.039C452.351 274.476 441.479 216.57 381.061 163.914C320.643 111.251 261.021 127.906 247.608 143.061C235.745 152.004 216.327 177.627 233.591 208.554C250.423 238.717 260.871 245.492 289.93 255.498C294.895 257.209 302.286 258.839 311.014 260.764C337.377 266.587 375.919 275.095 396.588 296.553ZM240.378 135.162C233.221 140.789 224.47 150.766 219.659 163.884C214.506 177.928 213.995 195.335 224.273 213.752C232.917 229.247 240.542 239.9 250.486 247.901C260.386 255.857 271.793 260.536 286.459 265.59C292.011 267.501 299.889 269.234 308.137 271.056L308.85 271.215C317.666 273.163 327.51 275.341 337.543 278.166C358 283.921 377.258 291.859 388.904 303.952L389.36 304.42L389.862 304.835C391.425 306.105 398.243 313.465 402.792 326.786C404.62 332.129 407.568 338.021 412.895 341.4C415.877 343.317 419.409 344.195 422.94 343.896C426.432 343.599 429.404 342.221 431.751 340.614C436.24 337.546 439.879 332.688 442.878 327.516C446.002 322.135 448.978 315.43 451.773 307.649C464.382 272.56 450.53 210.305 388.071 155.868C356.028 127.937 323.634 117.967 296.934 117.386C283.664 117.1 271.814 119.135 262.177 122.422C253.244 125.466 245.443 129.853 240.378 135.162Z"
    fill="#793109" />
  <path
    d="M226.709 187.883C227.298 194.358 229.316 201.259 233.323 208.447C248.74 239.708 266.635 247.75 283.807 253.32C285.663 253.925 287.552 254.537 289.492 255.202C294.446 256.903 301.82 258.519 310.528 260.427C336.833 266.202 375.29 274.638 395.891 296.017C399.181 298.692 407.034 307.772 412.127 322.715C418.491 341.395 430.302 332.927 440.94 303.425C444.054 294.779 445.337 283.707 444.067 271.054C443.867 271.674 443.661 272.286 443.437 272.886C431.688 305.486 418.647 314.84 411.609 294.199C405.982 277.69 397.305 267.655 393.671 264.699C370.914 241.081 328.419 231.76 299.355 225.382C289.732 223.272 281.588 221.484 276.114 219.607C273.969 218.869 271.878 218.19 269.831 217.529C254.802 212.651 242.024 208.505 226.709 187.883Z"
    fill="#E97B0C" />
  <path
    d="M343.822 157.038C343.305 171.041 306.684 149.745 279.316 178.731C262.833 196.196 246.594 174.751 247.111 160.748C247.628 146.746 262.113 137.686 285.422 133.646C303.666 130.487 339.231 138.993 343.822 157.038Z"
    fill="#FD9F40" />
  <path fill-rule="evenodd" clip-rule="evenodd"
    d="M372.773 170.188C372.929 171.615 372.516 173.033 371.625 174.132C370.733 175.231 369.436 175.921 368.018 176.05C348.28 177.829 329.109 187.58 312.506 199.766C295.96 211.912 282.376 226.183 273.874 236.379C273.43 236.932 272.878 237.388 272.252 237.721C271.626 238.055 270.937 238.257 270.226 238.319C269.515 238.38 268.797 238.298 268.112 238.077C267.428 237.857 266.791 237.503 266.238 237.036C265.686 236.569 265.231 235.997 264.897 235.356C264.564 234.714 264.36 234.015 264.298 233.299C264.235 232.583 264.315 231.865 264.533 231.185C264.75 230.507 265.102 229.881 265.566 229.345C274.437 218.708 288.616 203.783 306.039 190.997C323.4 178.255 344.396 167.313 366.836 165.293C368.254 165.166 369.676 165.61 370.789 166.528C371.902 167.446 372.616 168.762 372.773 170.188Z"
    fill="#F6D0AA" />
  <path fill-rule="evenodd" clip-rule="evenodd"
    d="M402.423 195.761C403.006 197.06 403.051 198.535 402.549 199.862C402.046 201.189 401.037 202.259 399.743 202.837C373.168 214.699 351.046 235.311 331.834 253.217L328.916 255.937C327.878 256.903 326.496 257.414 325.077 257.358C323.657 257.303 322.314 256.685 321.344 255.641C320.374 254.596 319.856 253.211 319.904 251.79C319.952 250.369 320.563 249.028 321.601 248.062L324.81 245.074C343.77 227.391 367.084 205.646 395.337 193.037C395.978 192.751 396.671 192.595 397.374 192.577C398.077 192.559 398.778 192.68 399.436 192.933C400.094 193.185 400.697 193.566 401.209 194.051C401.721 194.536 402.134 195.117 402.423 195.761ZM427.553 229.846C427.776 230.515 427.866 231.221 427.817 231.924C427.768 232.626 427.581 233.312 427.267 233.94C426.952 234.569 426.517 235.129 425.986 235.589C425.454 236.048 424.837 236.397 424.17 236.617C407.627 242.067 390.614 258.246 380.24 270.839C379.339 271.933 378.039 272.622 376.625 272.754C375.211 272.887 373.8 272.451 372.702 271.543C371.604 270.635 370.908 269.33 370.769 267.914C370.63 266.498 371.058 265.088 371.959 263.993C382.624 251.041 401.245 232.863 420.767 226.428C421.434 226.208 422.139 226.121 422.841 226.174C423.543 226.227 424.229 226.418 424.859 226.735C425.488 227.053 426.05 227.492 426.512 228.026C426.973 228.56 427.33 229.177 427.553 229.846ZM435.456 259.084C435.823 259.687 436.067 260.356 436.175 261.052C436.284 261.749 436.254 262.459 436.089 263.142C435.923 263.826 435.624 264.469 435.209 265.036C434.794 265.603 434.271 266.081 433.671 266.445C421.649 273.714 411.924 284.801 406.995 290.884C406.102 291.985 404.805 292.684 403.392 292.826C401.979 292.969 400.564 292.543 399.459 291.642C398.354 290.742 397.649 289.441 397.5 288.025C397.351 286.61 397.769 285.196 398.663 284.095C403.771 277.8 414.44 265.514 428.094 257.258C428.694 256.895 429.361 256.654 430.056 256.549C430.751 256.443 431.461 256.477 432.145 256.646C432.829 256.816 433.473 257.118 434.041 257.536C434.609 257.955 435.09 258.481 435.456 259.084ZM438.603 288.281C439.739 289.139 440.49 290.412 440.691 291.82C440.892 293.227 440.527 294.654 439.677 295.787C434.255 303.003 429.917 308.123 421.794 314.84C420.701 315.743 419.293 316.173 417.878 316.035C416.464 315.897 415.159 315.203 414.251 314.104C413.343 313.006 412.906 311.594 413.036 310.179C413.167 308.763 413.854 307.461 414.946 306.558C422.237 300.529 426.01 296.092 431.106 289.313C431.959 288.181 433.226 287.436 434.631 287.242C436.036 287.047 437.467 287.424 438.603 288.281Z"
    fill="#FFBB75" />
  <path fill-rule="evenodd" clip-rule="evenodd"
    d="M336.824 145.058C336.945 146.442 336.508 147.832 335.607 148.922C334.707 150.011 333.418 150.712 332.024 150.869C292.109 155.349 263.911 175.324 246.235 194.492C245.267 195.489 243.955 196.081 242.579 196.141C241.203 196.201 239.872 195.725 238.868 194.814C237.865 193.903 237.269 192.628 237.207 191.262C237.145 189.896 237.622 188.546 238.537 187.5C257.558 166.862 288.041 145.261 331.106 140.429C332.501 140.273 333.887 140.673 334.959 141.541C336.031 142.409 336.702 143.674 336.824 145.058Z"
    fill="#FFCB95" />
  <path
    d="M352.782 321.372C351.668 322.292 350.232 322.731 348.79 322.589C347.348 322.449 346.018 321.74 345.092 320.62C344.166 319.5 343.72 318.06 343.853 316.617C343.985 315.174 344.685 313.846 345.798 312.926C346.912 312.005 348.348 311.567 349.79 311.709C351.232 311.849 352.562 312.558 353.488 313.678C354.414 314.798 354.86 316.238 354.727 317.68C354.595 319.123 353.895 320.451 352.782 321.372ZM371.7 315.647C370.586 316.568 369.15 317.006 367.707 316.865C366.264 316.723 364.933 316.015 364.006 314.894C363.08 313.774 362.634 312.333 362.766 310.89C362.899 309.446 363.599 308.118 364.714 307.197C365.828 306.275 367.264 305.838 368.707 305.978C370.15 306.12 371.481 306.828 372.407 307.949C373.334 309.069 373.779 310.51 373.647 311.953C373.514 313.397 372.814 314.725 371.7 315.647ZM321.675 317.596C320.561 318.518 319.125 318.955 317.682 318.815C316.239 318.673 314.908 317.965 313.982 316.844C313.055 315.724 312.609 314.283 312.742 312.839C312.875 311.396 313.575 310.068 314.689 309.146C315.803 308.225 317.239 307.787 318.682 307.928C320.125 308.069 321.456 308.778 322.382 309.899C323.309 311.019 323.754 312.46 323.622 313.903C323.489 315.347 322.789 316.675 321.675 317.596ZM333.458 326.143C332.345 327.063 330.909 327.501 329.467 327.36C328.024 327.219 326.694 326.511 325.768 325.391C324.842 324.271 324.396 322.831 324.529 321.388C324.661 319.945 325.362 318.617 326.475 317.697C327.589 316.776 329.025 316.338 330.468 316.478C331.911 316.62 333.242 317.328 334.168 318.449C335.095 319.57 335.541 321.01 335.408 322.454C335.275 323.897 334.575 325.226 333.461 326.147L333.458 326.143ZM382.423 334.296C381.683 334.908 380.729 335.198 379.771 335.105C378.813 335.011 377.929 334.54 377.314 333.796C376.698 333.052 376.403 332.095 376.49 331.137C376.579 330.178 377.044 329.296 377.783 328.684C378.523 328.073 379.477 327.782 380.435 327.875C381.393 327.969 382.277 328.44 382.893 329.184C383.508 329.928 383.804 330.885 383.716 331.843C383.628 332.802 383.163 333.684 382.423 334.296ZM352.12 334.8C351.38 335.412 350.426 335.703 349.468 335.61C348.51 335.516 347.626 335.045 347.011 334.301C346.396 333.557 346.1 332.6 346.187 331.642C346.276 330.683 346.741 329.801 347.48 329.189C348.22 328.577 349.174 328.286 350.132 328.38C351.09 328.474 351.974 328.944 352.59 329.689C353.205 330.433 353.501 331.389 353.413 332.348C353.325 333.307 352.86 334.189 352.12 334.8ZM363.572 302.947C363.209 303.272 362.784 303.519 362.322 303.675C361.86 303.83 361.371 303.891 360.885 303.852C360.398 303.814 359.923 303.678 359.489 303.452C359.055 303.227 358.67 302.916 358.358 302.538C358.046 302.16 357.813 301.724 357.673 301.255C357.533 300.786 357.488 300.295 357.542 299.81C357.596 299.324 357.747 298.855 357.987 298.431C358.227 298.007 358.549 297.636 358.936 297.34C359.676 296.728 360.63 296.437 361.588 296.531C362.546 296.625 363.43 297.095 364.045 297.839C364.661 298.584 364.957 299.54 364.869 300.499C364.78 301.457 364.312 302.336 363.572 302.947ZM335.24 308.712C334.5 309.324 333.546 309.615 332.588 309.521C331.63 309.427 330.746 308.957 330.13 308.213C329.515 307.468 329.219 306.512 329.307 305.553C329.395 304.595 329.86 303.712 330.6 303.101C331.34 302.489 332.294 302.198 333.252 302.292C334.21 302.386 335.094 302.856 335.709 303.6C336.324 304.344 336.62 305.301 336.533 306.26C336.444 307.218 335.979 308.1 335.24 308.712ZM303.863 313.698C303.123 314.309 302.169 314.6 301.211 314.507C300.253 314.413 299.369 313.942 298.754 313.198C298.138 312.454 297.842 311.497 297.93 310.539C298.018 309.58 298.483 308.698 299.223 308.086C299.963 307.474 300.917 307.184 301.875 307.277C302.833 307.371 303.717 307.841 304.332 308.586C304.948 309.33 305.244 310.286 305.156 311.245C305.068 312.204 304.603 313.086 303.863 313.698ZM323.923 304.221C323.184 304.833 322.23 305.124 321.272 305.03C320.314 304.936 319.43 304.466 318.814 303.722C318.199 302.977 317.903 302.021 317.991 301.062C318.079 300.104 318.544 299.221 319.284 298.61C320.024 297.998 320.978 297.707 321.936 297.801C322.894 297.895 323.778 298.365 324.393 299.109C325.008 299.853 325.304 300.81 325.217 301.769C325.128 302.727 324.663 303.609 323.923 304.221ZM387.596 318.53C386.856 319.141 385.903 319.432 384.944 319.339C383.986 319.245 383.103 318.774 382.487 318.03C381.872 317.286 381.576 316.329 381.664 315.371C381.752 314.412 382.217 313.53 382.957 312.918C383.697 312.307 384.651 312.016 385.609 312.109C386.567 312.203 387.451 312.674 388.066 313.418C388.681 314.162 388.977 315.119 388.889 316.077C388.801 317.036 388.336 317.918 387.596 318.53ZM395.953 334.308C395.213 334.92 394.259 335.211 393.301 335.118C392.343 335.024 391.459 334.553 390.844 333.809C390.228 333.065 389.932 332.108 390.02 331.149C390.108 330.191 390.573 329.309 391.313 328.697C392.053 328.085 393.007 327.794 393.965 327.888C394.923 327.982 395.807 328.452 396.422 329.196C397.038 329.941 397.334 330.897 397.246 331.856C397.158 332.814 396.693 333.697 395.953 334.308ZM350.21 303.569C349.569 304.144 348.818 304.584 348.002 304.86C347.185 305.137 346.32 305.245 345.459 305.178C344.598 305.112 343.758 304.872 342.989 304.473C342.221 304.074 341.54 303.524 340.988 302.856C340.436 302.188 340.024 301.416 339.776 300.587C339.528 299.757 339.451 298.887 339.547 298.028C339.644 297.17 339.913 296.341 340.338 295.591C340.763 294.841 341.336 294.186 342.021 293.664C343.335 292.666 344.987 292.216 346.632 292.411C348.276 292.605 349.785 293.429 350.843 294.708C351.901 295.988 352.426 297.625 352.307 299.276C352.19 300.928 351.438 302.466 350.21 303.569ZM369.907 332.052C369.265 332.615 368.514 333.044 367.701 333.311C366.888 333.578 366.029 333.679 365.175 333.608C364.32 333.537 363.488 333.295 362.726 332.897C361.965 332.498 361.29 331.951 360.742 331.289C360.194 330.626 359.784 329.86 359.536 329.038C359.288 328.215 359.207 327.352 359.297 326.499C359.388 325.646 359.649 324.822 360.064 324.074C360.479 323.325 361.041 322.669 361.715 322.144C363.027 321.121 364.689 320.653 366.348 320.839C368.006 321.025 369.53 321.851 370.597 323.141C371.663 324.431 372.188 326.083 372.059 327.747C371.93 329.411 371.158 330.955 369.907 332.052Z"
    fill="#A7E5E5" />
  <path
    d="M107.028 150.563L146.17 118.2C197.807 66.4747 308.762 196.858 314.155 203.38C319.544 209.899 361.294 302.592 290.059 311.768C218.825 320.945 127.883 254.708 101.271 218.605C79.9737 189.722 96.2333 161.209 107.028 150.563Z"
    fill="#D8F4F1" />
  <path fill-rule="evenodd" clip-rule="evenodd"
    d="M107.749 150.501L147.027 118.026C198.847 66.126 310.088 196.841 315.495 203.38C320.898 209.915 362.735 302.861 291.275 312.097C219.816 321.332 128.622 254.942 101.943 218.746C80.5934 189.788 96.9162 161.183 107.749 150.501ZM139.875 110.136L100.609 142.601L100.279 142.929C93.6503 149.458 85.6824 161.023 82.3941 175.413C79.003 190.247 80.6809 207.868 93.3642 225.073C107.841 244.715 138.618 271.262 174.541 291.712C210.337 312.1 253.484 327.71 292.627 322.651C313.14 319.999 327.104 310.98 335.107 297.578C342.777 284.741 344.01 269.462 342.818 255.781C341.613 241.951 337.807 228.485 334.047 218.169C332.423 213.678 330.588 209.267 328.549 204.949C327.074 201.869 325.334 198.552 323.71 196.588C320.829 193.103 291.077 158.089 255.184 130.36C237.32 116.562 217.111 103.916 197.372 98.3087C177.441 92.6454 156.418 93.8623 139.875 110.136Z"
    fill="#2B5F66" />
  <path
    d="M107.522 150.155L146.465 117.956C197.816 66.4668 308.762 196.858 314.155 203.38C319.544 209.899 361.399 302.505 290.403 311.485C293.187 309.182 294.079 298.442 275.382 273.88C252.013 243.179 209.61 251.671 190.161 250.106C170.716 248.545 142.477 235.75 116.4 202.661C95.5421 176.19 101.792 156.627 107.522 150.155Z"
    fill="#76CEDA" />
  <path
    d="M133.293 175.109C116.058 144.258 135.385 118.731 147.204 109.823C160.556 94.7284 219.965 78.1761 280.238 130.73C340.502 183.291 351.382 241.033 340.827 270.499C330.274 299.958 318.494 308.399 312.102 289.711C306.983 274.765 299.117 265.668 295.828 262.991C268.382 234.49 209.388 228.833 189.487 221.963C160.511 211.964 150.096 205.196 133.289 175.112L133.293 175.109Z"
    fill="#FB4C15" />
  <path fill-rule="evenodd" clip-rule="evenodd"
    d="M295.11 263.268C298.393 265.933 306.236 275.001 311.31 289.928C317.649 308.588 329.468 300.111 340.141 270.616C350.806 241.12 340.106 183.422 279.955 131.081C219.797 78.7391 160.258 95.4954 146.834 110.637C134.973 119.583 115.535 145.174 132.679 175.964C149.403 205.986 159.81 212.714 188.782 222.614C193.733 224.307 201.104 225.914 209.808 227.809C236.1 233.547 274.539 241.93 295.11 263.268ZM139.637 102.77C132.48 108.405 123.727 118.371 118.892 131.46C113.71 145.478 113.155 162.832 123.368 181.162C131.954 196.587 139.535 207.187 149.439 215.138C159.294 223.039 170.664 227.683 185.289 232.68C190.822 234.566 198.682 236.278 206.908 238.073L207.618 238.23C216.411 240.149 226.228 242.295 236.233 245.085C256.632 250.771 275.825 258.638 287.419 270.66L287.869 271.129L288.37 271.534C289.932 272.804 296.711 280.115 301.219 293.387C303.03 298.709 305.956 304.576 311.26 307.926C314.23 309.829 317.753 310.695 321.277 310.389C324.766 310.088 327.732 308.703 330.081 307.098C334.569 304.028 338.213 299.176 341.218 294.012C344.346 288.636 347.337 281.948 350.145 274.185C362.81 239.171 349.155 177.145 286.968 123.037C255.06 95.2782 222.765 85.4185 196.123 84.9083C182.877 84.6602 171.051 86.716 161.426 90.0181C152.501 93.0711 144.705 97.4716 139.637 102.77Z"
    fill="#793109" />
  <path
    d="M125.972 155.492C126.557 161.97 128.572 168.867 132.583 176.059C148.004 207.316 165.891 215.358 183.066 220.933C184.923 221.53 186.815 222.146 188.755 222.811C193.709 224.511 201.083 226.128 209.791 228.036C236.095 233.811 274.552 242.248 295.153 263.627C298.443 266.302 306.297 275.381 311.39 290.324C317.754 309.005 329.564 300.537 340.197 271.039C343.316 262.389 344.594 251.321 343.328 238.665C343.128 239.285 342.918 239.9 342.698 240.496C330.95 273.096 317.905 282.454 310.871 261.809C305.243 245.3 296.567 235.265 292.929 232.312C270.171 208.694 227.682 199.369 198.618 192.992C188.995 190.881 180.847 189.089 175.377 187.216C173.228 186.482 171.137 185.802 169.091 185.134C154.062 180.256 141.28 176.114 125.972 155.492Z"
    fill="#CF390A" />
  <path
    d="M243.082 124.65C242.564 138.653 205.942 117.358 178.578 146.341C162.094 163.806 145.855 142.362 146.372 128.359C146.885 114.359 161.375 105.296 184.684 101.255C202.929 98.0958 238.494 106.601 243.082 124.65Z"
    fill="#FF7D53" />
  <path fill-rule="evenodd" clip-rule="evenodd"
    d="M271.177 136.765C271.236 137.449 271.158 138.142 270.948 138.804C270.738 139.466 270.4 140.084 269.954 140.624C269.508 141.163 268.961 141.613 268.346 141.947C267.731 142.282 267.06 142.494 266.37 142.573C246.99 144.784 227.973 154.712 211.409 166.944C194.897 179.139 181.242 193.316 172.662 203.418C172.213 203.966 171.662 204.422 171.04 204.761C170.419 205.099 169.739 205.313 169.041 205.389C168.343 205.466 167.641 205.405 166.976 205.208C166.31 205.011 165.695 204.683 165.166 204.243C164.637 203.803 164.204 203.26 163.893 202.646C163.583 202.032 163.4 201.358 163.357 200.665C163.313 199.972 163.409 199.273 163.639 198.608C163.869 197.944 164.228 197.328 164.696 196.797C173.645 186.263 187.906 171.429 205.284 158.599C222.606 145.801 243.443 134.677 265.477 132.158C266.167 132.079 266.862 132.136 267.522 132.324C268.182 132.513 268.793 132.83 269.323 133.259C269.852 133.686 270.288 134.217 270.607 134.818C270.924 135.42 271.118 136.081 271.177 136.765Z"
    fill="#F9C8C1" />
  <path fill-rule="evenodd" clip-rule="evenodd"
    d="M300.454 164.18C301.031 165.463 301.077 166.918 300.583 168.227C300.088 169.535 299.094 170.59 297.818 171.159C271.623 182.834 249.825 203.15 230.893 220.799L228.017 223.479C227.511 223.951 226.916 224.317 226.267 224.557C225.618 224.798 224.926 224.907 224.232 224.88C222.832 224.824 221.506 224.214 220.548 223.183C220.074 222.673 219.704 222.074 219.459 221.422C219.214 220.77 219.1 220.077 219.122 219.383C219.168 217.981 219.768 216.658 220.79 215.705C221.847 214.723 222.902 213.741 223.957 212.757C242.64 195.327 265.609 173.899 293.467 161.483C294.099 161.201 294.782 161.047 295.476 161.03C296.169 161.013 296.861 161.133 297.51 161.383C298.159 161.633 298.754 162.009 299.26 162.488C299.765 162.968 300.169 163.545 300.454 164.18ZM325.274 197.836C325.719 199.169 325.619 200.621 324.995 201.873C324.372 203.124 323.276 204.073 321.948 204.51C305.637 209.872 288.869 225.822 278.654 238.233C277.766 239.312 276.484 239.991 275.09 240.12C273.696 240.249 272.303 239.817 271.219 238.921C270.135 238.024 269.448 236.735 269.309 235.338C269.171 233.941 269.591 232.549 270.479 231.47C280.986 218.701 299.334 200.784 318.581 194.454C319.239 194.237 319.934 194.153 320.627 194.205C321.32 194.258 321.996 194.447 322.618 194.761C323.239 195.075 323.794 195.508 324.249 196.036C324.705 196.563 325.053 197.175 325.274 197.836ZM333.102 226.689C333.464 227.285 333.706 227.946 333.814 228.633C333.922 229.321 333.893 230.022 333.73 230.697C333.566 231.372 333.272 232.006 332.862 232.565C332.453 233.124 331.937 233.596 331.344 233.953C319.495 241.107 309.918 252.041 305.062 258.031C304.636 258.593 304.1 259.063 303.487 259.413C302.874 259.762 302.196 259.985 301.494 260.066C300.791 260.148 300.079 260.087 299.398 259.888C298.717 259.689 298.083 259.355 297.532 258.906C296.981 258.457 296.524 257.903 296.19 257.276C295.856 256.649 295.651 255.962 295.586 255.256C295.521 254.549 295.599 253.838 295.815 253.165C296.03 252.491 296.379 251.869 296.84 251.335C301.869 245.125 312.38 233.013 325.838 224.881C327.034 224.159 328.471 223.944 329.832 224.284C331.193 224.624 332.372 225.487 333.102 226.689ZM336.231 255.496C337.354 256.344 338.097 257.601 338.298 258.991C338.498 260.381 338.14 261.79 337.301 262.908C331.957 270.025 327.687 275.07 319.682 281.689C318.605 282.579 317.216 283.002 315.821 282.865C314.426 282.727 313.138 282.041 312.241 280.956C311.345 279.872 310.912 278.478 311.039 277.082C311.167 275.685 311.843 274.401 312.92 273.51C320.105 267.57 323.815 263.195 328.838 256.515C329.676 255.397 330.926 254.662 332.313 254.471C333.699 254.28 335.109 254.649 336.231 255.496Z"
    fill="#FFAD93" />
  <path fill-rule="evenodd" clip-rule="evenodd"
    d="M236.083 112.671C236.204 114.055 235.766 115.445 234.866 116.534C233.966 117.624 232.677 118.324 231.282 118.482C191.361 122.967 163.165 142.94 145.484 162.112C144.515 163.105 143.204 163.693 141.83 163.751C140.456 163.808 139.128 163.332 138.126 162.421C137.125 161.511 136.53 160.239 136.467 158.875C136.404 157.512 136.879 156.164 137.79 155.117C156.809 134.481 187.298 112.876 230.362 108.038C231.053 107.96 231.75 108.018 232.411 108.209C233.073 108.4 233.687 108.719 234.218 109.149C234.749 109.58 235.188 110.112 235.507 110.716C235.827 111.32 236.023 111.984 236.083 112.671Z"
    fill="#FBD7CB" />
  <path
    d="M252.089 288.945C251.539 289.4 250.904 289.742 250.22 289.949C249.536 290.158 248.817 290.229 248.104 290.158C247.391 290.088 246.697 289.877 246.063 289.539C245.429 289.201 244.867 288.741 244.408 288.187C243.949 287.632 243.604 286.993 243.391 286.307C243.178 285.621 243.101 284.9 243.167 284.186C243.231 283.472 243.436 282.779 243.769 282.147C244.102 281.515 244.556 280.955 245.106 280.5C246.217 279.581 247.651 279.145 249.092 279.287C250.532 279.429 251.862 280.139 252.788 281.258C253.714 282.378 254.16 283.817 254.029 285.259C253.899 286.701 253.2 288.027 252.089 288.945ZM270.979 283.243C269.867 284.163 268.433 284.599 266.992 284.457C265.551 284.314 264.221 283.605 263.294 282.484C262.368 281.364 261.921 279.924 262.052 278.482C262.183 277.039 262.881 275.713 263.993 274.793C265.105 273.874 266.539 273.438 267.98 273.58C269.421 273.723 270.751 274.432 271.678 275.553C272.605 276.673 273.051 278.113 272.92 279.555C272.789 280.997 272.091 282.324 270.979 283.243ZM221.025 285.136C219.913 286.055 218.479 286.492 217.038 286.35C215.596 286.207 214.266 285.498 213.34 284.377C212.413 283.256 211.967 281.817 212.098 280.375C212.229 278.932 212.927 277.606 214.039 276.686C215.151 275.767 216.585 275.331 218.026 275.473C219.467 275.616 220.797 276.325 221.724 277.445C222.65 278.566 223.097 280.006 222.966 281.448C222.835 282.89 222.137 284.217 221.025 285.136ZM232.798 293.69C232.247 294.145 231.612 294.486 230.929 294.694C230.245 294.902 229.526 294.973 228.812 294.903C228.099 294.832 227.405 294.622 226.771 294.283C226.137 293.945 225.575 293.486 225.116 292.931C224.658 292.377 224.312 291.738 224.099 291.052C223.886 290.365 223.81 289.645 223.875 288.931C223.939 288.217 224.144 287.524 224.477 286.891C224.81 286.259 225.265 285.699 225.815 285.244C226.926 284.326 228.36 283.889 229.8 284.032C231.241 284.174 232.57 284.883 233.496 286.003C234.422 287.123 234.869 288.562 234.737 290.004C234.607 291.445 233.909 292.771 232.798 293.69ZM281.712 301.884C281.346 302.186 280.924 302.413 280.47 302.551C280.015 302.689 279.538 302.737 279.064 302.69C278.59 302.643 278.129 302.503 277.707 302.278C277.286 302.054 276.913 301.749 276.608 301.38C276.303 301.011 276.074 300.587 275.932 300.131C275.791 299.675 275.74 299.196 275.783 298.722C275.826 298.248 275.962 297.787 276.183 297.367C276.405 296.947 276.707 296.575 277.072 296.273C277.81 295.662 278.763 295.373 279.72 295.467C280.677 295.562 281.56 296.032 282.176 296.777C282.791 297.521 283.087 298.477 283.001 299.435C282.913 300.392 282.45 301.273 281.712 301.884ZM251.446 302.359C250.707 302.969 249.755 303.259 248.798 303.165C247.841 303.07 246.957 302.599 246.342 301.855C245.727 301.111 245.43 300.154 245.517 299.197C245.604 298.239 246.068 297.358 246.806 296.747C247.545 296.137 248.497 295.847 249.454 295.942C250.411 296.036 251.294 296.507 251.91 297.252C252.525 297.996 252.821 298.952 252.735 299.91C252.647 300.867 252.184 301.748 251.446 302.359ZM262.853 270.543C262.491 270.867 262.067 271.114 261.605 271.269C261.144 271.424 260.656 271.484 260.17 271.445C259.683 271.407 259.209 271.27 258.775 271.044C258.342 270.818 257.957 270.507 257.645 270.129C257.333 269.752 257.099 269.316 256.959 268.847C256.819 268.378 256.774 267.887 256.827 267.403C256.881 266.918 257.031 266.449 257.27 266.026C257.509 265.602 257.831 265.231 258.217 264.936C258.956 264.326 259.908 264.036 260.865 264.13C261.822 264.225 262.705 264.696 263.321 265.44C263.936 266.184 264.232 267.141 264.146 268.098C264.058 269.056 263.592 269.933 262.853 270.543ZM234.564 276.273C234.199 276.575 233.777 276.802 233.323 276.94C232.868 277.078 232.39 277.125 231.916 277.079C231.443 277.032 230.982 276.891 230.561 276.667C230.139 276.442 229.766 276.137 229.461 275.768C229.156 275.4 228.927 274.976 228.785 274.52C228.644 274.064 228.593 273.585 228.636 273.11C228.679 272.636 228.815 272.176 229.036 271.755C229.257 271.335 229.559 270.963 229.925 270.661C230.663 270.051 231.616 269.761 232.573 269.855C233.53 269.95 234.413 270.421 235.028 271.165C235.644 271.91 235.94 272.866 235.853 273.823C235.766 274.781 235.303 275.662 234.564 276.273ZM203.223 281.223C202.86 281.546 202.436 281.793 201.975 281.948C201.514 282.103 201.025 282.163 200.539 282.124C200.053 282.086 199.579 281.949 199.145 281.723C198.711 281.497 198.327 281.186 198.015 280.809C197.702 280.431 197.469 279.995 197.329 279.526C197.188 279.058 197.143 278.566 197.197 278.082C197.25 277.597 197.401 277.128 197.639 276.705C197.879 276.281 198.201 275.91 198.587 275.615C199.325 275.005 200.278 274.715 201.235 274.809C202.192 274.904 203.075 275.375 203.69 276.119C204.305 276.864 204.602 277.82 204.515 278.777C204.428 279.735 203.961 280.612 203.223 281.223ZM223.253 271.778C222.515 272.388 221.563 272.678 220.606 272.584C219.649 272.489 218.765 272.018 218.15 271.274C217.535 270.529 217.238 269.573 217.325 268.616C217.412 267.658 217.876 266.777 218.614 266.166C219.352 265.556 220.305 265.266 221.262 265.36C222.219 265.455 223.102 265.926 223.717 266.67C224.333 267.415 224.629 268.371 224.543 269.328C224.455 270.286 223.992 271.167 223.253 271.778ZM286.863 286.136C286.125 286.747 285.172 287.036 284.215 286.942C283.258 286.847 282.375 286.376 281.76 285.632C281.145 284.888 280.848 283.932 280.935 282.974C281.022 282.016 281.485 281.135 282.224 280.525C282.962 279.914 283.915 279.625 284.872 279.719C285.829 279.814 286.712 280.285 287.327 281.029C287.943 281.773 288.239 282.729 288.152 283.687C288.065 284.645 287.602 285.526 286.863 286.136ZM295.221 301.913C294.483 302.524 293.53 302.813 292.573 302.719C291.616 302.624 290.733 302.153 290.117 301.409C289.502 300.665 289.206 299.709 289.292 298.751C289.38 297.793 289.843 296.912 290.582 296.302C291.32 295.691 292.272 295.402 293.229 295.496C294.186 295.591 295.07 296.062 295.685 296.806C296.3 297.55 296.597 298.506 296.51 299.464C296.423 300.422 295.959 301.303 295.221 301.913ZM249.504 271.154C248.864 271.729 248.114 272.167 247.299 272.443C246.484 272.718 245.62 272.826 244.76 272.758C243.899 272.691 243.06 272.451 242.292 272.051C241.525 271.651 240.844 271.101 240.292 270.433C239.74 269.766 239.328 268.994 239.079 268.165C238.831 267.336 238.753 266.466 238.848 265.609C238.944 264.751 239.211 263.923 239.635 263.174C240.059 262.425 240.631 261.771 241.315 261.251C242.626 260.254 244.276 259.806 245.919 260.003C247.561 260.199 249.069 261.023 250.127 262.302C251.185 263.582 251.711 265.218 251.594 266.868C251.478 268.518 250.729 270.054 249.504 271.154ZM269.204 299.633C268.563 300.196 267.814 300.623 267.003 300.889C266.191 301.155 265.333 301.255 264.479 301.184C263.626 301.111 262.794 300.869 262.033 300.47C261.272 300.071 260.598 299.524 260.05 298.862C259.502 298.199 259.092 297.434 258.843 296.611C258.594 295.789 258.512 294.927 258.602 294.075C258.692 293.223 258.951 292.399 259.365 291.652C259.779 290.905 260.339 290.25 261.013 289.725C262.322 288.704 263.982 288.239 265.638 288.427C267.295 288.614 268.818 289.441 269.884 290.73C270.951 292.02 271.477 293.672 271.349 295.334C271.223 296.996 270.453 298.538 269.204 299.633Z"
    fill="#A7E5E5" />
  <path
    d="M264.402 174.195C269.931 148.278 261.727 120.456 256.938 109.791C264.993 112.426 281.863 125.331 287.881 132.611C315.058 180.077 293.706 226.132 277.627 249.754C267.02 265.333 230.825 292.465 210.637 305.141L166.703 277.343C172.294 274.441 199.017 254.646 214.289 243.163C228.688 230.975 258.873 200.111 264.402 174.195Z"
    fill="#657F8D" />
  <path fill-rule="evenodd" clip-rule="evenodd"
    d="M249.038 103.194C250.417 101.666 252.209 100.57 254.196 100.038C256.183 99.5073 258.279 99.5638 260.228 100.202C266.021 102.097 273.417 106.912 279.413 111.392C285.602 116.014 292.068 121.619 295.852 126.195C296.235 126.659 296.578 127.156 296.881 127.673C326.993 180.303 302.859 230.918 286.137 255.462C279.847 264.697 266.999 276.217 254.208 286.449C241.077 296.944 226.708 307.098 216.284 313.648C214.588 314.712 212.627 315.277 210.628 315.276C208.63 315.275 206.675 314.709 204.991 313.644L161.271 286.01C159.7 285.017 158.422 283.627 157.564 281.979C156.706 280.332 156.3 278.485 156.386 276.626C156.472 274.766 157.048 272.96 158.054 271.389C159.061 269.818 160.463 268.539 162.12 267.679C162.793 267.328 164.929 265.973 168.577 263.45C172 261.079 176.247 258.04 180.844 254.698C189.926 248.099 200.206 240.45 207.763 234.77C214.486 229.047 224.963 218.906 234.381 207.201C244.119 195.109 251.701 182.573 253.923 172.189C258.796 149.409 251.485 124.121 247.221 114.627C246.382 112.757 246.106 110.681 246.428 108.652C246.749 106.622 247.659 104.724 249.038 103.194ZM214.358 243.021C203.674 251.047 187.377 263.158 176.687 270.661C172.151 273.85 168.625 276.204 166.966 277.062L210.681 304.699C230.788 292.068 266.831 265.049 277.394 249.541C293.419 226.019 314.696 180.176 287.678 132.953C284.359 128.938 277.714 123.2 271.087 118.44C265.772 114.617 260.466 111.422 256.888 110.258C258.408 113.637 260.263 118.753 261.92 124.986C265.452 138.317 268.038 156.773 264.273 174.35C258.753 200.145 228.695 230.88 214.35 243.021L214.358 243.021Z"
    fill="#1E2F3B" />
  <path fill-rule="evenodd" clip-rule="evenodd"
    d="M273.202 133.145C274.584 132.839 276.022 133.092 277.201 133.846C278.38 134.6 279.203 135.795 279.489 137.168C282.086 149.641 287.572 182.717 267.013 209.361C266.587 209.928 266.054 210.406 265.444 210.769C264.834 211.131 264.16 211.37 263.462 211.473C262.762 211.574 262.052 211.538 261.373 211.364C260.692 211.19 260.055 210.882 259.499 210.459C258.943 210.036 258.479 209.505 258.133 208.898C257.787 208.292 257.566 207.62 257.484 206.924C257.402 206.227 257.459 205.519 257.654 204.841C257.848 204.162 258.175 203.527 258.615 202.971C275.975 180.477 271.632 151.819 269.068 139.478C268.782 138.105 269.058 136.666 269.833 135.479C270.609 134.291 271.82 133.452 273.202 133.145Z"
    fill="#87A6B7" />
  <path
    d="M166.692 277.329C172.249 274.457 198.78 254.815 213.947 243.425C219.86 238.412 228.466 230.216 236.897 220.497C247.679 224.36 257.702 244.873 277.04 250.238C266.538 265.733 230.599 292.651 210.545 305.216L166.692 277.329Z"
    fill="#446476" />
  <path
    d="M160.453 320.685L199.593 288.324C251.2 236.57 362.801 367.726 368.222 374.282C373.646 380.843 415.759 473.972 344.384 482.974C273.005 491.979 181.665 425.258 154.876 388.949C133.445 359.905 149.668 331.333 160.453 320.685Z"
    fill="#D8F4F1" />
  <path fill-rule="evenodd" clip-rule="evenodd"
    d="M161.171 320.624L200.449 288.149C252.27 236.248 363.518 366.963 368.92 373.498C374.327 380.037 416.16 472.978 344.701 482.215C273.237 491.454 182.05 425.072 155.361 388.871C134.011 359.914 150.342 331.303 161.171 320.624ZM193.301 280.255L154.035 312.72L153.701 313.052C147.08 319.582 139.108 331.142 135.816 345.536C132.429 360.366 134.102 377.991 146.789 395.199C161.27 414.838 192.043 441.381 227.962 461.834C263.762 482.219 306.904 497.831 346.047 492.772C366.564 490.124 380.525 481.101 388.532 467.703C396.202 454.859 397.435 439.58 396.243 425.906C395.035 412.072 391.228 398.606 387.468 388.29C385.844 383.8 384.009 379.388 381.971 375.07C380.499 371.986 378.755 368.673 377.135 366.713C374.254 363.229 344.499 328.21 308.606 300.482C290.742 286.684 270.541 274.039 250.802 268.432C230.864 262.76 209.844 263.989 193.301 280.255Z"
    fill="#2B5F66" />
  <path
    d="M160.942 320.281L199.885 288.083C251.21 236.563 362.801 367.726 368.222 374.282C373.646 380.843 415.863 473.886 344.724 482.693C347.504 480.395 348.371 469.616 329.556 444.919C306.043 414.044 263.563 422.444 244.064 420.817C224.573 419.191 196.225 406.274 169.996 372.992C149.012 346.369 155.22 326.764 160.942 320.281Z"
    fill="#76CEDA" />
  <path
    d="M186.391 347.091C169.33 316.352 188.925 290.656 200.851 281.655C214.366 266.448 274.115 249.431 334.202 301.559C394.281 353.694 404.763 411.388 393.945 440.955C383.124 470.517 371.245 479.054 364.965 460.402C359.942 445.485 352.121 436.446 348.838 433.789C321.511 405.479 262.356 400.269 242.428 393.547C213.425 383.763 203.025 377.07 186.391 347.091Z"
    fill="#FB8915" />
  <path fill-rule="evenodd" clip-rule="evenodd"
    d="M349.28 434.287C352.574 436.965 360.457 446.081 365.576 461.071C371.977 479.805 383.799 471.332 394.418 441.773C405.035 412.209 394.166 354.308 333.745 301.648C273.327 248.985 213.705 265.64 200.292 280.794C188.429 289.737 169.011 315.361 186.275 346.288C203.107 376.45 213.555 383.225 242.614 393.232C247.58 394.942 254.97 396.573 263.701 398.501C290.061 404.321 328.607 412.833 349.272 434.286L349.28 434.287ZM193.066 272.892C185.905 278.522 177.158 288.503 172.343 301.617C167.19 315.662 166.675 333.072 176.96 351.49C185.605 366.985 193.226 377.634 203.17 385.635C213.07 393.59 224.478 398.27 239.147 403.32C244.696 405.234 252.573 406.968 260.821 408.79L261.534 408.948C270.35 410.896 280.194 413.074 290.227 415.899C310.684 421.655 329.942 429.593 341.591 441.69L342.04 442.149L342.543 442.564C344.112 443.843 350.927 451.198 355.479 464.523C357.305 469.862 360.252 475.755 365.579 479.133C368.561 481.05 372.092 481.927 375.624 481.63C379.116 481.332 382.093 479.951 384.435 478.347C388.924 475.279 392.563 470.422 395.562 465.249C398.686 459.869 401.662 453.163 404.464 445.384C417.066 410.294 403.214 348.038 340.755 293.601C308.712 265.67 276.318 255.7 249.618 255.12C236.348 254.833 224.498 256.868 214.861 260.156C205.928 263.199 198.131 267.583 193.066 272.892Z"
    fill="#793109" />
  <path
    d="M179.393 325.616C179.982 332.092 182.001 338.992 186.008 346.181C201.424 377.441 219.319 385.484 236.491 391.054C238.391 391.665 240.286 392.293 242.176 392.936C247.13 394.636 254.504 396.253 263.216 398.165C289.517 403.936 327.977 412.376 348.575 433.75C351.869 436.422 359.722 445.509 364.811 460.448C371.175 479.128 382.986 470.661 393.624 441.159C396.738 432.512 398.021 421.44 396.751 408.787C396.551 409.408 396.345 410.02 396.124 410.623C384.372 443.219 371.331 452.574 364.296 431.936C358.666 415.423 349.989 405.389 346.355 402.432C323.594 378.817 281.103 369.493 252.039 363.116C242.417 361.005 234.272 359.218 228.798 357.34C226.71 356.63 224.615 355.938 222.516 355.262C207.486 350.384 194.708 346.239 179.393 325.616Z"
    fill="#E97B0C" />
  <path
    d="M297.411 295.868C297.042 310.05 259.867 288.085 232.571 317.156C216.126 334.666 199.518 312.775 199.887 298.594C200.259 284.416 214.776 275.394 238.25 271.555C256.621 268.55 292.59 277.538 297.411 295.868Z"
    fill="#FD9F40" />
  <path fill-rule="evenodd" clip-rule="evenodd"
    d="M325.456 307.922C325.612 309.349 325.198 310.768 324.306 311.868C323.414 312.968 322.115 313.658 320.697 313.787C300.952 315.578 281.766 325.333 265.151 337.529C248.593 349.685 235.001 363.97 226.492 374.172C226.042 374.711 225.489 375.154 224.865 375.474C224.241 375.795 223.557 375.988 222.854 376.043C222.15 376.097 221.439 376.011 220.763 375.79C220.086 375.569 219.457 375.218 218.911 374.756C218.365 374.294 217.914 373.73 217.581 373.097C217.249 372.464 217.043 371.773 216.975 371.066C216.907 370.358 216.978 369.646 217.185 368.972C217.391 368.297 217.729 367.672 218.179 367.133C227.058 356.49 241.248 341.555 258.687 328.763C276.057 316.007 297.07 305.059 319.518 303.027C320.936 302.899 322.359 303.343 323.472 304.261C324.586 305.178 325.299 306.495 325.456 307.922Z"
    fill="#F6D0AA" />
  <path fill-rule="evenodd" clip-rule="evenodd"
    d="M354.816 335.43C355.393 336.712 355.438 338.168 354.944 339.476C354.45 340.785 353.455 341.84 352.179 342.409C325.976 354.083 304.177 374.4 285.245 392.049L282.369 394.73C281.863 395.201 281.267 395.567 280.618 395.807C279.968 396.047 279.278 396.156 278.584 396.128C277.89 396.1 277.208 395.936 276.576 395.645C275.944 395.353 275.374 394.94 274.9 394.43C274.426 393.919 274.056 393.321 273.812 392.669C273.568 392.016 273.454 391.324 273.477 390.629C273.5 389.935 273.659 389.253 273.945 388.622C274.232 387.991 274.64 387.424 275.146 386.953L278.309 384.007C296.992 366.577 319.967 345.145 347.824 332.735C349.101 332.167 350.554 332.132 351.864 332.636C353.175 333.141 354.239 334.148 354.816 335.43ZM379.624 369.081C380.07 370.414 379.97 371.866 379.346 373.118C378.723 374.369 377.627 375.318 376.298 375.755C359.994 381.125 343.226 397.068 333.007 409.483C332.119 410.562 330.837 411.241 329.442 411.37C328.048 411.499 326.655 411.068 325.572 410.171C324.488 409.274 323.801 407.985 323.662 406.588C323.523 405.191 323.944 403.8 324.832 402.721C335.339 389.951 353.691 372.037 372.935 365.703C373.594 365.486 374.289 365.402 374.981 365.454C375.674 365.507 376.35 365.696 376.972 366.01C377.593 366.324 378.148 366.757 378.603 367.285C379.059 367.812 379.404 368.42 379.624 369.081ZM387.456 397.938C387.818 398.534 388.06 399.194 388.167 399.881C388.275 400.569 388.246 401.269 388.083 401.944C387.921 402.618 387.626 403.252 387.218 403.811C386.809 404.37 386.294 404.841 385.702 405.199C373.852 412.36 364.274 423.295 359.415 429.288C358.983 429.837 358.446 430.293 357.835 430.631C357.223 430.969 356.551 431.181 355.855 431.255C355.159 431.33 354.455 431.265 353.783 431.064C353.11 430.864 352.483 430.532 351.938 430.088C351.394 429.644 350.941 429.096 350.608 428.477C350.276 427.858 350.069 427.179 349.999 426.481C349.93 425.783 350 425.079 350.205 424.41C350.41 423.741 350.746 423.121 351.193 422.585C356.222 416.375 366.733 404.263 380.192 396.13C380.784 395.772 381.442 395.534 382.127 395.432C382.813 395.328 383.513 395.362 384.188 395.53C384.862 395.698 385.498 395.997 386.059 396.41C386.62 396.823 387.094 397.343 387.456 397.938ZM390.588 426.75C391.709 427.598 392.451 428.855 392.651 430.244C392.851 431.633 392.493 433.04 391.655 434.157C386.314 441.272 382.04 446.32 374.035 452.939C372.958 453.829 371.569 454.252 370.174 454.115C368.779 453.978 367.491 453.291 366.594 452.206C365.697 451.122 365.265 449.728 365.392 448.332C365.52 446.936 366.196 445.651 367.273 444.761C374.458 438.82 378.175 434.445 383.195 427.761C384.034 426.645 385.284 425.911 386.669 425.721C388.055 425.53 389.467 425.903 390.588 426.75Z"
    fill="#FFBB75" />
  <path fill-rule="evenodd" clip-rule="evenodd"
    d="M289.512 282.786C289.573 283.472 289.497 284.166 289.288 284.829C289.08 285.492 288.744 286.111 288.298 286.65C287.853 287.189 287.307 287.638 286.692 287.972C286.077 288.306 285.405 288.517 284.715 288.594C244.834 293.046 216.671 312.992 199.025 332.142C198.551 332.656 197.982 333.076 197.35 333.375C196.719 333.674 196.037 333.849 195.344 333.888C194.652 333.927 193.962 333.83 193.313 333.603C192.664 333.375 192.071 333.022 191.565 332.562C191.059 332.103 190.652 331.546 190.366 330.925C190.08 330.304 189.922 329.63 189.899 328.941C189.877 328.252 189.992 327.562 190.236 326.911C190.481 326.26 190.85 325.66 191.324 325.145C210.321 304.534 240.763 282.961 283.792 278.159C285.185 278.004 286.57 278.404 287.642 279.273C288.713 280.141 289.389 281.402 289.512 282.786Z"
    fill="#FFCB95" />
  <path
    d="M305.467 459.111C304.353 460.032 302.917 460.47 301.474 460.329C300.031 460.188 298.7 459.48 297.773 458.359C296.847 457.238 296.401 455.798 296.533 454.354C296.666 452.911 297.366 451.582 298.481 450.661C299.595 449.74 301.031 449.302 302.474 449.442C303.917 449.584 305.248 450.292 306.175 451.413C307.101 452.533 307.547 453.974 307.414 455.418C307.281 456.861 306.581 458.19 305.467 459.111ZM324.383 453.381C323.832 453.837 323.195 454.179 322.51 454.388C321.826 454.596 321.106 454.668 320.392 454.598C319.678 454.529 318.983 454.319 318.349 453.981C317.715 453.643 317.152 453.184 316.693 452.629C316.235 452.074 315.889 451.435 315.677 450.749C315.464 450.062 315.388 449.341 315.454 448.626C315.519 447.912 315.725 447.218 316.059 446.585C316.393 445.951 316.849 445.391 317.4 444.935C318.514 444.014 319.95 443.576 321.392 443.717C322.834 443.858 324.164 444.566 325.09 445.686C326.016 446.806 326.462 448.246 326.329 449.689C326.197 451.132 325.497 452.46 324.383 453.381ZM274.356 455.332C273.242 456.253 271.807 456.691 270.365 456.55C268.922 456.409 267.592 455.701 266.666 454.581C265.74 453.461 265.294 452.021 265.427 450.578C265.559 449.135 266.259 447.807 267.373 446.887C268.486 445.966 269.922 445.528 271.364 445.669C272.807 445.81 274.137 446.518 275.063 447.638C275.989 448.758 276.435 450.198 276.302 451.641C276.17 453.084 275.469 454.412 274.356 455.332ZM286.142 463.883C285.028 464.804 283.592 465.242 282.149 465.101C280.706 464.96 279.375 464.251 278.449 463.131C277.522 462.01 277.076 460.57 277.209 459.126C277.341 457.683 278.042 456.354 279.156 455.433C280.27 454.511 281.706 454.073 283.149 454.214C284.592 454.355 285.923 455.064 286.85 456.185C287.776 457.305 288.222 458.746 288.09 460.189C287.957 461.633 287.257 462.961 286.142 463.883ZM335.106 472.03C334.743 472.354 334.317 472.602 333.856 472.758C333.394 472.913 332.905 472.973 332.418 472.935C331.931 472.897 331.457 472.761 331.023 472.535C330.589 472.31 330.204 471.999 329.892 471.621C329.579 471.243 329.346 470.807 329.206 470.338C329.066 469.869 329.022 469.378 329.076 468.893C329.13 468.407 329.281 467.938 329.52 467.514C329.76 467.09 330.083 466.718 330.47 466.423C331.21 465.811 332.164 465.52 333.122 465.613C334.08 465.707 334.964 466.178 335.579 466.922C336.195 467.666 336.49 468.623 336.403 469.581C336.314 470.54 335.846 471.418 335.106 472.03ZM304.802 472.536C304.062 473.148 303.108 473.439 302.15 473.345C301.192 473.251 300.308 472.781 299.692 472.037C299.077 471.292 298.781 470.336 298.869 469.377C298.957 468.418 299.422 467.536 300.162 466.924C300.902 466.313 301.856 466.022 302.814 466.115C303.772 466.209 304.656 466.68 305.271 467.424C305.887 468.168 306.183 469.125 306.095 470.083C306.007 471.042 305.542 471.924 304.802 472.536ZM316.263 440.682C315.523 441.294 314.569 441.585 313.611 441.491C312.653 441.397 311.769 440.927 311.154 440.183C310.539 439.438 310.243 438.482 310.33 437.523C310.419 436.565 310.884 435.682 311.624 435.071C312.364 434.459 313.317 434.168 314.276 434.261C315.234 434.355 316.118 434.826 316.733 435.57C317.348 436.314 317.644 437.271 317.557 438.229C317.468 439.188 317.003 440.07 316.263 440.682ZM287.921 446.447C287.181 447.059 286.228 447.35 285.269 447.257C284.311 447.163 283.427 446.692 282.812 445.948C282.197 445.204 281.901 444.247 281.989 443.289C282.077 442.33 282.542 441.448 283.282 440.836C284.022 440.224 284.976 439.933 285.934 440.027C286.892 440.121 287.776 440.591 288.391 441.335C289.007 442.08 289.302 443.036 289.215 443.995C289.126 444.953 288.661 445.836 287.921 446.447ZM256.547 451.431C255.807 452.043 254.853 452.333 253.895 452.24C252.937 452.146 252.053 451.676 251.438 450.931C250.822 450.187 250.526 449.231 250.614 448.272C250.703 447.313 251.168 446.431 251.907 445.819C252.647 445.208 253.601 444.917 254.559 445.01C255.518 445.104 256.402 445.574 257.017 446.319C257.632 447.063 257.928 448.02 257.84 448.978C257.752 449.937 257.287 450.819 256.547 451.431ZM276.605 441.957C275.865 442.569 274.911 442.859 273.953 442.766C272.995 442.672 272.111 442.202 271.496 441.457C270.88 440.713 270.584 439.757 270.672 438.798C270.761 437.839 271.225 436.957 271.965 436.345C272.705 435.733 273.659 435.443 274.617 435.536C275.575 435.63 276.459 436.1 277.075 436.845C277.69 437.589 277.986 438.545 277.898 439.504C277.81 440.463 277.345 441.345 276.605 441.957ZM340.28 456.263C339.54 456.875 338.586 457.166 337.628 457.073C336.67 456.979 335.786 456.508 335.171 455.764C334.556 455.02 334.26 454.063 334.347 453.104C334.436 452.146 334.901 451.264 335.641 450.652C336.381 450.04 337.334 449.749 338.293 449.843C339.251 449.937 340.135 450.407 340.75 451.151C341.365 451.895 341.661 452.852 341.574 453.811C341.485 454.769 341.02 455.652 340.28 456.263ZM348.636 472.042C347.897 472.654 346.943 472.945 345.984 472.851C345.026 472.757 344.142 472.287 343.527 471.543C342.912 470.799 342.616 469.842 342.704 468.883C342.792 467.925 343.257 467.042 343.997 466.431C344.737 465.819 345.691 465.528 346.649 465.621C347.607 465.715 348.491 466.186 349.106 466.93C349.722 467.674 350.018 468.631 349.93 469.59C349.841 470.548 349.376 471.43 348.636 472.042ZM302.893 441.303C302.252 441.879 301.501 442.318 300.684 442.595C299.867 442.871 299.003 442.98 298.141 442.913C297.28 442.847 296.44 442.607 295.672 442.208C294.904 441.808 294.223 441.258 293.671 440.591C293.119 439.923 292.706 439.151 292.459 438.321C292.211 437.492 292.133 436.622 292.23 435.763C292.326 434.905 292.595 434.076 293.02 433.325C293.445 432.576 294.018 431.92 294.704 431.399C296.018 430.4 297.67 429.951 299.315 430.145C300.959 430.34 302.468 431.163 303.526 432.443C304.584 433.722 305.109 435.359 304.99 437.01C304.873 438.662 304.121 440.2 302.893 441.303ZM322.586 469.79C321.945 470.365 321.193 470.805 320.377 471.082C319.56 471.358 318.695 471.466 317.834 471.4C316.973 471.334 316.133 471.094 315.365 470.694C314.596 470.295 313.915 469.745 313.363 469.078C312.811 468.41 312.399 467.638 312.151 466.808C311.904 465.979 311.826 465.108 311.922 464.25C312.019 463.392 312.288 462.563 312.713 461.812C313.138 461.062 313.711 460.407 314.397 459.886C315.711 458.887 317.363 458.437 319.007 458.632C320.652 458.826 322.16 459.65 323.218 460.929C324.276 462.209 324.801 463.846 324.683 465.497C324.566 467.149 323.814 468.687 322.586 469.79Z"
    fill="#A7E5E5" />
</svg>